<svg width="306" height="55" viewBox="0 0 306 55" fill="none" xmlns="http://www.w3.org/2000/svg">
<g id="Logo">
<g id="Logo_2">
<path id="ComicClan" fill-rule="evenodd" clip-rule="evenodd" d="M86.2469 27.5172C87.7937 28.7547 90.9391 29.6312 92.8984 29.6312C99.0344 29.6312 104.294 24.9391 104.294 18.7C104.294 11.9969 98.4156 7.51093 91.0422 7.51093C80.1625 7.51093 72.5312 16.225 72.5312 26.8469C72.5312 38.5 80.5234 45.1516 91.7641 45.1516C95.6312 45.1516 99.1375 44.1719 102.231 41.8V34.2719C100.427 37.2109 95.1156 39.1703 91.7641 39.1703C84.2359 39.1703 78.9766 35.0453 78.9766 27.2078C78.9766 20.35 83.7203 13.5437 91.0422 13.5437C94.0844 13.5437 97.8484 15.0906 97.8484 18.7C97.8484 21.5359 95.3734 23.5984 92.6406 23.5984C91.2484 23.5984 89.8562 22.9281 88.825 22L86.2469 27.5172ZM128.425 34.9422C128.425 29.2703 123.836 24.6297 118.164 24.6297C112.492 24.6297 107.903 29.2703 107.903 34.9422C107.903 40.5625 112.492 45.2031 118.164 45.2031C123.836 45.2031 128.425 40.5625 128.425 34.9422ZM118.164 40.2015C121.103 40.2015 123.475 37.8297 123.475 34.9422V34.6844C122.908 34.9937 122.238 35.2 121.567 35.2C119.35 35.2 117.494 33.3953 117.494 31.1781C117.494 30.6109 117.597 30.0953 117.803 29.6312C114.967 29.7859 113.059 32.2094 113.059 34.9422C113.059 37.8297 115.225 40.2015 118.164 40.2015ZM163.591 45.1516C165.138 45.1516 166.839 44.7906 168.025 43.8625V39.1187C167.458 39.6344 166.684 39.9437 165.911 39.9437C164.777 39.9437 163.797 39.2734 163.797 38.0875V31.7969C163.797 27.5687 160.703 24.6812 156.527 24.6812C154.206 24.6812 151.783 25.5062 150.648 27.6719C149.359 25.7641 147.348 24.6812 145.028 24.6812C143.12 24.6812 141.161 25.4031 139.975 27.0016V25.0937H134.097V44.6875H139.975V33.1375C140.336 31.1781 141.522 29.5281 143.481 29.5281C145.183 29.5281 146.008 30.8687 146.008 32.4156V44.6875H151.886V33.1891C152.247 31.2812 153.433 29.5281 155.392 29.5281C157.094 29.5281 157.97 30.8687 157.97 32.4156V38.8609C157.97 42.0578 160.188 45.1516 163.591 45.1516ZM174.573 21.0719C172.305 21.0719 170.5 19.2156 170.5 16.9984C170.5 14.7812 172.305 12.925 174.573 12.925C176.791 12.925 178.595 14.7812 178.595 16.9984C178.595 19.2156 176.791 21.0719 174.573 21.0719ZM177.255 45.1516C178.75 45.1516 180.452 44.7906 181.689 43.8625V39.1187C181.122 39.6344 180.348 39.9437 179.523 39.9437C178.441 39.9437 177.461 39.2734 177.461 38.0875V25.0937H171.634V38.8609C171.634 42.0578 173.852 45.1516 177.255 45.1516ZM189.114 34.7359C189.114 37.9844 191.692 39.7891 194.734 39.7891C196.591 39.7891 198.859 39.325 200.303 38.0875V44.0172C198.705 44.7906 196.488 45.1516 194.734 45.1516C188.495 45.1516 183.752 41.1812 183.752 34.7359C183.752 29.3734 187.877 24.6297 193.394 24.6297C197.003 24.6297 200.767 26.0219 200.767 30.25C200.767 32.5703 199.169 34.2719 196.848 34.2719C195.095 34.2719 193.136 32.6734 193.136 30.8687C193.136 30.5594 193.188 30.25 193.239 29.9922C190.352 30.0437 189.114 32.1578 189.114 34.7359ZM218.608 27.5172C220.155 28.7547 223.3 29.6312 225.259 29.6312C231.395 29.6312 236.655 24.9391 236.655 18.7C236.655 11.9969 230.777 7.51093 223.403 7.51093C212.523 7.51093 204.892 16.225 204.892 26.8469C204.892 38.5 212.884 45.1516 224.125 45.1516C227.992 45.1516 231.498 44.1719 234.592 41.8V34.2719C232.788 37.2109 227.477 39.1703 224.125 39.1703C216.597 39.1703 211.338 35.0453 211.338 27.2078C211.338 20.35 216.081 13.5437 223.403 13.5437C226.445 13.5437 230.209 15.0906 230.209 18.7C230.209 21.5359 227.734 23.5984 225.002 23.5984C223.609 23.5984 222.217 22.9281 221.186 22L218.608 27.5172ZM251.866 43.8625C250.68 44.7906 248.978 45.1516 247.431 45.1516C244.028 45.1516 241.811 42.0578 241.811 38.8609V8.07811H247.689V38.0875C247.689 39.2734 248.617 39.9437 249.752 39.9437C250.525 39.9437 251.298 39.6344 251.866 39.1187V43.8625ZM279.606 39.1187C278.987 39.6344 278.214 39.9437 277.441 39.9437C276.306 39.9437 275.378 39.2734 275.378 38.0875V25.0937H269.5V27.3625C267.953 25.5062 265.839 24.6812 263.416 24.6812C257.641 24.6812 253.928 29.3734 253.928 34.8906C253.928 40.4594 257.641 45.1516 263.416 45.1516C266.2 45.1516 268.572 44.0172 270.067 41.6453C270.995 43.8625 273.006 45.1516 275.12 45.1516C276.667 45.1516 278.369 44.7906 279.606 43.8625V39.1187ZM264.808 40.2531C266.87 40.2531 268.778 38.8609 269.5 36.9016V32.8797C268.778 30.9203 266.922 29.5281 264.808 29.5281C261.92 29.5281 259.755 32.0547 259.755 34.8906C259.755 37.7266 261.92 40.2531 264.808 40.2531ZM305.233 39.1187C304.614 39.6344 303.841 39.9437 303.067 39.9437C301.984 39.9437 301.005 39.2734 301.005 38.0875V31.7969C301.005 27.9297 298.169 24.6812 294.147 24.6812C292.239 24.6812 290.28 25.4031 289.094 27.0016V25.0937H283.216V44.6875H289.094V33.1375C289.506 31.1266 290.641 29.5281 292.6 29.5281C294.302 29.5281 295.127 30.8687 295.127 32.4156V38.8609C295.127 42.0578 297.344 45.1516 300.798 45.1516C302.294 45.1516 303.995 44.7906 305.233 43.8625V39.1187Z" fill="#2E2E2E"/>
<g id="uil-book-open">
<g id="Icon">
<path id="Icon Shape" fill-rule="evenodd" clip-rule="evenodd" d="M47.2654 3.43751C49.1406 3.44506 51.0119 3.60599 52.8599 3.91863C54.054 4.11969 54.9445 5.11023 54.9997 6.29893V36.6857C55.0109 37.439 54.68 38.158 54.0969 38.6475C53.5139 39.137 52.7392 39.346 51.9834 39.2179C44.4811 38.028 36.808 39.8733 30.714 44.333L30.4047 44.5102H30.1211C29.5436 44.7466 28.8939 44.7466 28.3164 44.5102H28.0328L27.7235 44.333C21.5871 39.9711 13.9178 38.2271 6.45415 39.4964C5.69831 39.6246 4.92362 39.4155 4.34056 38.926C3.75749 38.4366 3.4266 37.7175 3.43778 36.9642V6.57747C3.41933 5.33116 4.32702 4.25701 5.5776 4.04525C7.42559 3.7326 9.29688 3.57167 11.1721 3.56412C17.5571 3.52115 23.8206 5.27888 29.2188 8.62858C34.6031 5.23431 40.8675 3.43236 47.2654 3.43751ZM11.0491 34.0503C16.1821 34.0471 21.2386 35.3383 25.7812 37.8125V13.2059C21.4112 10.2158 16.2873 8.62435 11.0491 8.63035C10.2313 8.58155 9.41152 8.58155 8.59375 8.63035V34.0503H11.0491ZM49.8438 34.0634H47.3884C42.2554 34.0601 37.1989 35.3469 32.6562 37.8125V13.1899C37.0263 10.2101 42.1502 8.62425 47.3884 8.63022C48.2062 8.58159 49.026 8.58159 49.8438 8.63022V34.0634ZM47.2417 44.6875C49.1144 44.6948 50.9833 44.8499 52.8288 45.1512C53.5057 45.2531 54.1119 45.6065 54.513 46.1333C54.9141 46.6602 55.0771 47.3168 54.9658 47.9579C54.6934 49.2775 53.3464 50.1396 51.9534 49.886C44.4996 48.6626 36.8404 50.3435 30.7121 54.5476C29.8182 55.1508 28.6193 55.1508 27.7254 54.5476C21.5971 50.3435 13.9379 48.6626 6.48408 49.886C5.09109 50.1396 3.74409 49.2775 3.47167 47.9579C3.36039 47.3168 3.52336 46.6602 3.92448 46.1333C4.3256 45.6065 4.93175 45.2531 5.60868 45.1512C7.45424 44.8499 9.32307 44.6948 11.1958 44.6875C17.5853 44.6825 23.8415 46.4193 29.2188 49.6908C34.596 46.4193 40.8522 44.6825 47.2417 44.6875Z" fill="#2E2E2E"/>
</g>
</g>
</g>
</g>
</svg>
